<?xml version="1.0" standalone="no"?>
<!DOCTYPE svg PUBLIC "-//W3C//DTD SVG 20010904//EN"
 "http://www.w3.org/TR/2001/REC-SVG-20010904/DTD/svg10.dtd">
<svg version="1.0" xmlns="http://www.w3.org/2000/svg"
 width="509.000000pt" height="509.000000pt" viewBox="0 0 509.000000 509.000000"
 preserveAspectRatio="xMidYMid meet">
<metadata>
Created by potrace 1.14, written by Peter Selinger 2001-2017
</metadata>
<g transform="translate(0.000000,509.000000) scale(0.100000,-0.100000)"
fill="#000000" stroke="none">
<path d="M2417 5084 c-1 -1 -40 -4 -87 -8 -470 -36 -965 -228 -1336 -517 -215
-167 -447 -417 -571 -615 -118 -187 -212 -376 -272 -547 -55 -157 -102 -346
-117 -462 -3 -22 -7 -49 -9 -61 -11 -50 -19 -200 -19 -334 1 -205 13 -316 59
-555 19 -95 104 -350 156 -467 89 -198 212 -398 347 -566 81 -101 277 -302
339 -349 21 -15 46 -36 57 -45 24 -22 214 -158 221 -158 2 0 28 -15 57 -34 70
-44 259 -139 353 -176 100 -40 253 -90 275 -90 9 0 20 -3 24 -7 3 -4 14 -8 22
-9 9 -2 37 -8 63 -14 58 -13 76 -17 186 -35 17 -3 55 -7 85 -10 30 -3 80 -8
110 -11 63 -7 335 -6 395 1 22 2 58 7 80 9 22 3 60 8 85 11 37 5 156 28 255
50 11 3 65 19 120 36 993 309 1693 1184 1780 2224 9 100 9 321 0 400 -3 33 -8
80 -11 105 -8 80 -34 222 -59 320 -97 387 -285 742 -560 1060 -259 299 -658
570 -1030 701 -49 17 -99 35 -110 39 -49 19 -224 62 -250 61 -2 0 -19 5 -37
10 -18 5 -60 12 -93 15 -33 3 -62 7 -65 9 -17 10 -431 28 -443 19z"/>
</g>
</svg>
