<svg role="img" aria-hidden="true" xmlns="http://www.w3.org/2000/svg" width="125" height="20"><path d="M40.073 3.524c-.241 0-.488.222-.556.497l-2.883 12.044 7.861.009c.21 0 .557-.01.78-.011.105-.009 2.237-.009 3.124-.207 1.17-.262 1.69-.516 2.34-.992.58-.427.957-.933 1.215-1.509l.009-.03c-.15 1.005.241 1.754 1.187 2.261.37.215.838.352 1.38.408.535.057 2.52.073 2.6.08h.74l7.716-.01 1.382-5.685c.592-2.32-.137-3.614-2.134-4.2a8.09 8.09 0 00-1.291-.198c-.431-.03-1.94-.044-2.003-.045h-6.323c-.374 0-.588.237-.657.537l-.276 1.172c-.045.221-.014.347.076.455.06.067.172.107.268.107h6.99c1.377 0 1.719.566 1.488 1.315-.092.287-.229.347-.469.347h-4.15c-1.511 0-2.63.088-3.319.261a4.586 4.586 0 00-2.05 1.09 3.813 3.813 0 00-.934 1.31c-.011-1.474-1.817-2.483-1.984-2.574-.04-.023-.06-.055-.058-.09 0-.072.078-.165.204-.239.009 0 .492-.283 1.152-.845.633-.53 1.056-1.162 1.243-1.897.14-.584.095-1.072-.113-1.497-.322-.676-.873-1.203-1.816-1.486-1.08-.33-2.422-.375-3.22-.375h-7.518v-.003zm57.974.07c-.235 0-.475.234-.541.536l-2.86 11.935h3.935l2.85-11.91c.044-.177.017-.346-.071-.45a.302.302 0 00-.24-.11h-3.073zm17.114 0c-.233 0-.463.152-.534.446l-.36 1.531c-.048.177-.036.347.052.453.057.072.143.11.235.11h1.412c.057 0 .134.03.173.075.07.08.057.204.022.353l-2.267 9.503h4.135l2.264-9.483c.061-.29.226-.447.4-.447h3.348c.228 0 .475-.24.541-.538l.337-1.44c.041-.18.035-.34-.054-.449a.376.376 0 00-.259-.114h-9.446zm-45.54.01c-.266 0-.478.235-.55.535l-2.853 11.928s6.29.008 8.231.008c2.597 0 5.351-.28 6.126-3.038.14-.52.626-2.689.626-2.689.587-2.245-.055-3.576-2.086-4.199-.421-.13-.85-.168-1.29-.199-.43-.03-1.94-.045-2.002-.045h-3.29l.414-1.737c.041-.179.013-.348-.076-.454a.303.303 0 00-.233-.107h-3.017v-.004zM44.155 5.845h2.456c1.087 0 2.356.176 2.035 1.312-.138.503-.478.929-1.163 1.225-.277.11-.562.19-.845.232-.283.041-.947.046-.954.045h-2.23a.213.213 0 01-.17-.076c-.063-.074-.081-.184-.052-.306l.485-2.04c.053-.223.254-.391.438-.391zm44.905.04c-2.35 0-4.264 0-5.424.831-1.292.925-1.41 1.918-1.67 3.013 0 0-.444 1.788-.798 3.278-.348 1.463.69 3.074 4.618 3.074l2.369.009c1.956.028 3.862.058 5.04-.683 1.013-.631 1.38-1.609 1.59-2.386.125-.467.782-3.289.782-3.289.26-1.098.16-1.83-.515-2.563-.888-.966-1.696-1.282-5.848-1.282h-.144v-.002zm13.86.049c-.374 0-.59.237-.658.537l-.275 1.172c-.045.221-.012.347.076.455.06.067.175.107.266.107h7.089c1.375 0 1.722.566 1.484 1.315-.087.287-.223.347-.466.347h-4.248c-1.51 0-2.625.088-3.316.261a4.538 4.538 0 00-2.048 1.09c-.578.537-.953 1.16-1.115 1.85-.262 1.137.12 1.968 1.143 2.518.369.214.834.35 1.384.407.53.058 2.516.073 2.6.08l8.453-.009 1.332-5.685c.616-2.2-.087-3.615-2.08-4.2a8.134 8.134 0 00-1.293-.199c-.435-.03-1.947-.044-2.008-.045h-6.32v-.001zM87.818 8.627h.929c2.16 0 2.512.133 2.987.654.404.448.283.926.126 1.591l-.035.164-.056.247c-.147.673-.255 1.157-.963 1.602-.6.376-1.44.362-2.457.348l-.548-.01c-1.243 0-2.14.01-2.661-.454-.496-.44-.473-.762-.182-1.816.312-1.147.326-1.46 1.004-1.946.443-.315 1.059-.373 1.856-.382v.002zm-15.939.01h2.72c.032 0 .695.008.889.021.192.014.385.044.568.09.88.268 1.195.912.92 1.917 0 .011-.213.988-.279 1.225-.341 1.26-1.553 1.386-2.7 1.386h-3.205l1.087-4.637v-.003zm-28.946 2.35h2.005c.47 0 1.302-.017 1.894.255.507.23.696.602.577 1.087-.126.508-.507.935-1.187 1.222a3.009 3.009 0 01-.86.22c-.287.035-.948.025-.955.025-.22.009-2.191.009-2.191.009a.208.208 0 01-.17-.08c-.062-.071-.078-.18-.052-.306l.49-2.035c.053-.222.223-.394.449-.394v-.004zm14.993 1.156h4.35c.055 0 .105.024.14.069.07.077.088.21.057.359l-.194.82c-.057.246-.254.454-.428.454h-4.188c-.729 0-1.066-.02-1.334-.147-.253-.118-.357-.368-.288-.674a1.01 1.01 0 01.494-.664c.28-.157.58-.218 1.391-.218zm47.704 0h4.346c.061 0 .108.024.147.069.066.077.088.21.054.359l-.194.82c-.054.246-.255.454-.426.454h-4.186c-.732 0-1.072-.02-1.34-.147-.252-.118-.358-.368-.288-.674.062-.267.223-.506.498-.664.28-.157.577-.218 1.39-.218h-.001zm14.48 2.875l-.035.163h.365l-.194.888h.234l.191-.888h.369l.036-.163h-.966zm1.163 0l-.313 1.05h.218l.12-.42c.039-.144.083-.311.118-.449.01.131.022.275.042.408l.072.45h.178l.287-.455c.085-.131.17-.275.239-.403h.009c-.032.142-.058.307-.08.443l-.067.427h.228l.152-1.05h-.302l-.268.42c-.076.124-.15.253-.208.367h-.009a4.815 4.815 0 00-.038-.365l-.076-.423h-.306.004zM24.074 0c-.941 0-3.595.092-5.746 2.231a1576.165 1576.165 0 01-4.986 4.75H33.29L36.752 0H24.074zM9.96 10.216L.07 19.613l23.117.009c.213 0 3.761.135 5.031-2.428 1.21-2.442 2.973-5.991 3.463-6.976H9.961v-.002zm18.344 8.274l-.03.15h.338l-.181.825h.22l.176-.825h.34l.034-.15h-.897zm1.08 0l-.29.975h.202l.111-.393c.038-.134.08-.287.112-.415.01.121.02.255.04.379l.067.416h.166l.265-.421c.08-.123.157-.255.221-.374h.009c-.031.132-.054.284-.075.41l-.065.398h.213l.141-.975h-.281l-.247.39a4.28 4.28 0 00-.19.34h-.01a4.002 4.002 0 00-.036-.338l-.069-.392h-.285.002z" fill="#FFF"/></svg>